<svg xmlns="http://www.w3.org/2000/svg" viewBox="0 0 1000 100" width="1000" height="100" style="display:none;">
  <!-- Dashboard Icon -->
  <symbol id="icon-dashboard" viewBox="0 0 24 24">
    <rect x="3" y="3" width="8" height="8" fill="currentColor" rx="1" />
    <rect x="13" y="3" width="8" height="8" fill="currentColor" rx="1" />
    <rect x="3" y="13" width="8" height="8" fill="currentColor" rx="1" />
    <rect x="13" y="13" width="8" height="8" fill="currentColor" rx="1" />
  </symbol>

  <!-- Upload Icon -->
  <symbol id="icon-upload" viewBox="0 0 24 24">
    <path d="M12 2v11m0 0l-4-4m4 4l4-4" stroke="currentColor" stroke-width="2" fill="none" stroke-linecap="round" stroke-linejoin="round" />
    <path d="M4 14h16v3a2 2 0 01-2 2H6a2 2 0 01-2-2v-3z" stroke="currentColor" stroke-width="2" fill="none" stroke-linecap="round" stroke-linejoin="round" />
  </symbol>

  <!-- Candidates Icon -->
  <symbol id="icon-candidates" viewBox="0 0 24 24">
    <path d="M17 21v-2a4 4 0 00-4-4H5a4 4 0 00-4 4v2" stroke="currentColor" stroke-width="2" fill="none" stroke-linecap="round" stroke-linejoin="round" />
    <circle cx="9" cy="7" r="4" stroke="currentColor" stroke-width="2" fill="none" stroke-linecap="round" stroke-linejoin="round" />
    <path d="M23 21v-2a4 4 0 00-3-3.87" stroke="currentColor" stroke-width="2" fill="none" stroke-linecap="round" stroke-linejoin="round" />
    <path d="M16 3.13a4 4 0 010 7.75" stroke="currentColor" stroke-width="2" fill="none" stroke-linecap="round" stroke-linejoin="round" />
  </symbol>

  <!-- Bias Analysis Icon -->
  <symbol id="icon-bias" viewBox="0 0 24 24">
    <path d="M12 2L2 7v5c0 5.55 3.84 10.74 9 12 5.16-1.26 9-6.45 9-12V7l-10-5z" stroke="currentColor" stroke-width="2" fill="none" stroke-linecap="round" stroke-linejoin="round" />
    <path d="M12 12l-3-3m0 6l3-3m0 0l3 3m-3-3l-3 3" stroke="currentColor" stroke-width="2" fill="none" stroke-linecap="round" stroke-linejoin="round" />
  </symbol>

  <!-- Reports Icon -->
  <symbol id="icon-reports" viewBox="0 0 24 24">
    <path d="M9 12l2 2 4-4m7 0a9 9 0 11-18 0 9 9 0 0118 0z" stroke="currentColor" stroke-width="2" fill="none" stroke-linecap="round" stroke-linejoin="round" />
    <path d="M9 5H7a2 2 0 00-2 2v12a2 2 0 002 2h10a2 2 0 002-2V7a2 2 0 00-2-2h-2M9 5a2 2 0 002-2m0 0a2 2 0 012 2m-2-2v2m6 0v-2" stroke="currentColor" stroke-width="2" fill="none" stroke-linecap="round" stroke-linejoin="round" />
  </symbol>

  <!-- Settings Icon -->
  <symbol id="icon-settings" viewBox="0 0 24 24">
    <path d="M10.325 4.317c.426-1.756 2.924-1.756 3.35 0a1.724 1.724 0 002.573 1.066c1.543-.94 3.31.826 2.37 2.37a1.724 1.724 0 001.065 2.572c1.756.426 1.756 2.924 0 3.35a1.724 1.724 0 00-1.066 2.573c.94 1.543-.826 3.31-2.37 2.37a1.724 1.724 0 00-2.572 1.065c-.426 1.756-2.924 1.756-3.35 0a1.724 1.724 0 00-2.573-1.066c-1.543.94-3.31-.826-2.37-2.37a1.724 1.724 0 00-1.065-2.572c-1.756-.426-1.756-2.924 0-3.35a1.724 1.724 0 001.066-2.573c-.94-1.543.826-3.31 2.37-2.37.996.608 2.296.07 2.572-1.065z" stroke="currentColor" stroke-width="2" fill="none" stroke-linecap="round" stroke-linejoin="round" />
    <circle cx="12" cy="12" r="3" stroke="currentColor" stroke-width="2" fill="none" stroke-linecap="round" stroke-linejoin="round" />
  </symbol>

  <!-- Success Icon -->
  <symbol id="icon-success" viewBox="0 0 24 24">
    <path d="M5 13l4 4L19 7" stroke="currentColor" stroke-width="2" fill="none" stroke-linecap="round" stroke-linejoin="round" />
    <circle cx="12" cy="12" r="10" stroke="currentColor" stroke-width="2" fill="none" />
  </symbol>

  <!-- Error Icon -->
  <symbol id="icon-error" viewBox="0 0 24 24">
    <path d="M12 8v4m0 4v.01M21 12a9 9 0 11-18 0 9 9 0 0118 0z" stroke="currentColor" stroke-width="2" fill="none" stroke-linecap="round" stroke-linejoin="round" />
  </symbol>

  <!-- Warning Icon -->
  <symbol id="icon-warning" viewBox="0 0 24 24">
    <path d="M12 9v2m0 4v2m8.228-14.228l-1.414-1.414M4.228 4.228L2.814 2.814m15.456 15.456l-1.414 1.414M4.228 19.772L2.814 21.186" stroke="currentColor" stroke-width="2" fill="none" stroke-linecap="round" stroke-linejoin="round" />
  </symbol>

  <!-- Filter Icon -->
  <symbol id="icon-filter" viewBox="0 0 24 24">
    <path d="M3 4a1 1 0 011-1h16a1 1 0 011 1v2.586a1 1 0 01-.293.707l-6.414 6.414a1 1 0 00-.293.707V17l-4 4v-6.586a1 1 0 00-.293-.707L3.293 7.293A1 1 0 013 6.586V4z" stroke="currentColor" stroke-width="2" fill="none" stroke-linecap="round" stroke-linejoin="round" />
  </symbol>

  <!-- Search Icon -->
  <symbol id="icon-search" viewBox="0 0 24 24">
    <path d="M11 4a7 7 0 100 14 7 7 0 000-14zM21 21l-4.35-4.35" stroke="currentColor" stroke-width="2" fill="none" stroke-linecap="round" stroke-linejoin="round" />
  </symbol>

  <!-- Download Icon -->
  <symbol id="icon-download" viewBox="0 0 24 24">
    <path d="M4 16v1a3 3 0 003 3h10a3 3 0 003-3v-1m-4-4l-4 4m0 0l-4-4m4 4V4" stroke="currentColor" stroke-width="2" fill="none" stroke-linecap="round" stroke-linejoin="round" />
  </symbol>

  <!-- Delete Icon -->
  <symbol id="icon-delete" viewBox="0 0 24 24">
    <path d="M19 7l-.867 12.142A2 2 0 0116.138 21H7.862a2 2 0 01-1.995-1.858L5 7m5 4v6m4-6v6m1-10V4a1 1 0 00-1-1h-4a1 1 0 00-1 1v3M4 7h16" stroke="currentColor" stroke-width="2" fill="none" stroke-linecap="round" stroke-linejoin="round" />
  </symbol>

  <!-- Edit Icon -->
  <symbol id="icon-edit" viewBox="0 0 24 24">
    <path d="M11 5H6a2 2 0 00-2 2v11a2 2 0 002 2h11a2 2 0 002-2v-5m-1.414-9.414a2 2 0 112.828 2.828L11.828 15H9v-2.828l8.586-8.586z" stroke="currentColor" stroke-width="2" fill="none" stroke-linecap="round" stroke-linejoin="round" />
  </symbol>

  <!-- Menu Icon -->
  <symbol id="icon-menu" viewBox="0 0 24 24">
    <path d="M4 6h16M4 12h16M4 18h16" stroke="currentColor" stroke-width="2" fill="none" stroke-linecap="round" stroke-linejoin="round" />
  </symbol>

  <!-- Close Icon -->
  <symbol id="icon-close" viewBox="0 0 24 24">
    <path d="M6 18L18 6M6 6l12 12" stroke="currentColor" stroke-width="2" fill="none" stroke-linecap="round" stroke-linejoin="round" />
  </symbol>

  <!-- Chart Icon -->
  <symbol id="icon-chart" viewBox="0 0 24 24">
    <path d="M9 19v-6a2 2 0 00-2-2H5a2 2 0 00-2 2v6a2 2 0 002 2h2a2 2 0 002-2zm0 0V9a2 2 0 012-2h2a2 2 0 012 2v10m-6 0a2 2 0 002 2h2a2 2 0 002-2m0 0V5a2 2 0 012-2h2a2 2 0 012 2v14a2 2 0 01-2 2h-2a2 2 0 01-2-2z" stroke="currentColor" stroke-width="2" fill="none" stroke-linecap="round" stroke-linejoin="round" />
  </symbol>

  <!-- User Icon -->
  <symbol id="icon-user" viewBox="0 0 24 24">
    <path d="M16 7a4 4 0 11-8 0 4 4 0 018 0zM12 14a7 7 0 00-7 7h14a7 7 0 00-7-7z" stroke="currentColor" stroke-width="2" fill="none" stroke-linecap="round" stroke-linejoin="round" />
  </symbol>

  <!-- File Icon -->
  <symbol id="icon-file" viewBox="0 0 24 24">
    <path d="M9 12l2 2 4-4m6 2a9 9 0 11-18 0 9 9 0 0118 0z" stroke="currentColor" stroke-width="2" fill="none" stroke-linecap="round" stroke-linejoin="round" />
  </symbol>

  <!-- Logout Icon -->
  <symbol id="icon-logout" viewBox="0 0 24 24">
    <path d="M17 16l4-4m0 0l-4-4m4 4H7m6 4v1a3 3 0 01-3 3H6a3 3 0 01-3-3V7a3 3 0 013-3h4a3 3 0 013 3v1" stroke="currentColor" stroke-width="2" fill="none" stroke-linecap="round" stroke-linejoin="round" />
  </symbol>

  <!-- Arrow Right Icon -->
  <symbol id="icon-arrow-right" viewBox="0 0 24 24">
    <path d="M13 7l5 5m0 0l-5 5m5-5H6" stroke="currentColor" stroke-width="2" fill="none" stroke-linecap="round" stroke-linejoin="round" />
  </symbol>

  <!-- Calendar Icon -->
  <symbol id="icon-calendar" viewBox="0 0 24 24">
    <path d="M8 7V3m8 4V3m-9 8h14M5 21h14a2 2 0 002-2V7a2 2 0 00-2-2H5a2 2 0 00-2 2v12a2 2 0 002 2z" stroke="currentColor" stroke-width="2" fill="none" stroke-linecap="round" stroke-linejoin="round" />
  </symbol>
</svg>
